<svg preserveAspectRatio="none" overflow="visible" style="display: block;" width="19.8977" height="19.8977" viewBox="0 0 19.8977 19.8977" fill="none" xmlns="http://www.w3.org/2000/svg">
<g id="locaiton">
<path id="Vector" d="M10.4472 18.0727C11.9892 16.7412 16.5815 12.43 16.5815 8.29046C16.5815 6.53139 15.8827 4.84437 14.6388 3.60052C13.395 2.35667 11.7079 1.65788 9.94888 1.65788C8.18981 1.65788 6.50279 2.35667 5.25894 3.60052C4.01509 4.84437 3.3163 6.53139 3.3163 8.29046C3.3163 12.43 7.90853 16.7412 9.45061 18.0727C9.59426 18.1807 9.76914 18.2391 9.94888 18.2391C10.1286 18.2391 10.3035 18.1807 10.4472 18.0727Z" fill="#A6A5A7"/>
<path id="Vector_2" d="M9.94876 10.7779C11.3224 10.7779 12.436 9.66433 12.436 8.29067C12.436 6.91702 11.3224 5.80346 9.94876 5.80346C8.57511 5.80346 7.46154 6.91702 7.46154 8.29067C7.46154 9.66433 8.57511 10.7779 9.94876 10.7779Z" fill="white"/>
</g>
</svg>
