<svg preserveAspectRatio="none" overflow="visible" style="display: block;" width="15.4845" height="15.4845" viewBox="0 0 15.4845 15.4845" fill="none" xmlns="http://www.w3.org/2000/svg">
<g id="Frame">
<path id="Vector" d="M9.0327 11.6133V3.87109C9.0327 3.52886 8.89675 3.20065 8.65476 2.95866C8.41277 2.71666 8.08456 2.58071 7.74233 2.58071H2.58082C2.23859 2.58071 1.91038 2.71666 1.66839 2.95866C1.42639 3.20065 1.29044 3.52886 1.29044 3.87109V10.9682C1.29044 11.1393 1.35842 11.3034 1.47941 11.4244C1.60041 11.5454 1.76452 11.6133 1.93563 11.6133H3.22601" stroke="#134488" stroke-width="1.10604" stroke-linecap="round" stroke-linejoin="round"/>
<path id="Vector_2" d="M9.6778 11.6134H5.80667" stroke="#134488" stroke-width="1.10604" stroke-linecap="round" stroke-linejoin="round"/>
<path id="Vector_3" d="M12.2586 11.6138H13.549C13.7201 11.6138 13.8842 11.5458 14.0052 11.4248C14.1262 11.3038 14.1941 11.1397 14.1941 10.9686V8.61363C14.1939 8.46721 14.1438 8.32524 14.0522 8.21103L11.807 5.40446C11.7466 5.3289 11.6701 5.26786 11.5829 5.22587C11.4958 5.18388 11.4004 5.16201 11.3037 5.16187H9.03264" stroke="#134488" stroke-width="1.10604" stroke-linecap="round" stroke-linejoin="round"/>
<path id="Vector_4" d="M10.9682 12.9038C11.6809 12.9038 12.2586 12.326 12.2586 11.6134C12.2586 10.9007 11.6809 10.323 10.9682 10.323C10.2556 10.323 9.67786 10.9007 9.67786 11.6134C9.67786 12.326 10.2556 12.9038 10.9682 12.9038Z" stroke="#134488" stroke-width="1.10604" stroke-linecap="round" stroke-linejoin="round"/>
<path id="Vector_5" d="M4.5163 12.9038C5.22896 12.9038 5.80668 12.326 5.80668 11.6134C5.80668 10.9007 5.22896 10.323 4.5163 10.323C3.80365 10.323 3.22593 10.9007 3.22593 11.6134C3.22593 12.326 3.80365 12.9038 4.5163 12.9038Z" stroke="#134488" stroke-width="1.10604" stroke-linecap="round" stroke-linejoin="round"/>
</g>
</svg>
